<?xml version="1.0" encoding="UTF-8" standalone="no"?>
<!-- Created with Inkscape (http://www.inkscape.org/) -->

<svg
   xmlns:dc="http://purl.org/dc/elements/1.1/"
   xmlns:cc="http://creativecommons.org/ns#"
   xmlns:rdf="http://www.w3.org/1999/02/22-rdf-syntax-ns#"
   xmlns:svg="http://www.w3.org/2000/svg"
   xmlns="http://www.w3.org/2000/svg"
   xmlns:sodipodi="http://sodipodi.sourceforge.net/DTD/sodipodi-0.dtd"
   xmlns:inkscape="http://www.inkscape.org/namespaces/inkscape"
   id="svg3056"
   version="1.1"
   inkscape:version="0.48.3.1 r9886"
   width="783.0625"
   height="636.4375"
   xml:space="preserve"
   sodipodi:docname="dh.svg"
   inkscape:export-filename="/home/ahb/catkin_ws/src/tf_visual_calc/src/img/dh.png"
   inkscape:export-xdpi="37.500404"
   inkscape:export-ydpi="37.500404"><metadata
     id="metadata3062"><rdf:RDF><cc:Work
         rdf:about=""><dc:format>image/svg+xml</dc:format><dc:type
           rdf:resource="http://purl.org/dc/dcmitype/StillImage" /><dc:title></dc:title></cc:Work></rdf:RDF></metadata><defs
     id="defs3060"><clipPath
       clipPathUnits="userSpaceOnUse"
       id="clipPath3074"><path
         d="m 567.48,61.011 -540,0 0,720 540,0 0,-720 z"
         clip-rule="evenodd"
         id="path3076"
         inkscape:connector-curvature="0" /></clipPath><clipPath
       clipPathUnits="userSpaceOnUse"
       id="clipPath3082"><path
         d="m 0,841.98 595.2,0 L 595.2,0 0,0 0,841.98 z"
         id="path3084"
         inkscape:connector-curvature="0" /></clipPath></defs><sodipodi:namedview
     pagecolor="#ffffff"
     bordercolor="#666666"
     borderopacity="1"
     objecttolerance="10"
     gridtolerance="10"
     guidetolerance="10"
     inkscape:pageopacity="0"
     inkscape:pageshadow="2"
     inkscape:window-width="1364"
     inkscape:window-height="748"
     id="namedview3058"
     showgrid="false"
     inkscape:zoom="0.85925926"
     inkscape:cx="602.77562"
     inkscape:cy="346.1754"
     inkscape:window-x="0"
     inkscape:window-y="18"
     inkscape:window-maximized="0"
     inkscape:current-layer="g3064"
     fit-margin-top="0"
     fit-margin-left="0"
     fit-margin-right="0"
     fit-margin-bottom="0" /><g
     id="g3064"
     inkscape:groupmode="layer"
     inkscape:label="dh"
     transform="matrix(0,1.25,1.25,0,-115.3125,-63.10625)"><g
   id="g3118"
   transform="translate(322.74001,84.291)"><path
     d="m 0,0 19.56,-5.28 40.2,150 -19.56,5.22"
     style="fill:#bbe0e3;fill-opacity:1;fill-rule:evenodd;stroke:none"
     id="path3120"
     inkscape:connector-curvature="0" /></g><g
   id="g3122"
   transform="translate(322.74001,84.291)"><path
     d="m 0,0 19.56,-5.28 40.2,150 L 40.2,149.94 0,0 z"
     style="fill:none;stroke:#010101;stroke-width:1;stroke-linecap:round;stroke-linejoin:miter;stroke-miterlimit:8;stroke-opacity:1;stroke-dasharray:none"
     id="path3124"
     inkscape:connector-curvature="0" /></g><g
   id="g3130"
   transform="translate(141.12,609.291)"><path
     d="m 0,0 c -4.8,15.9 -14.64,27 -21.96,24.78 l -7.56,-2.28 c -5.94,-1.8 -8.58,-12.06 -6.36,-25.02 l -3.78,-1.2 9.42,-5.46 5.7,10.08 -3.78,-1.14 c -1.68,9.96 -0.6,18.54 2.94,22.68 6.72,-1.92 13.98,-12 17.82,-24.78"
     style="fill:#a50122;fill-opacity:1;fill-rule:evenodd;stroke:none"
     id="path3132"
     inkscape:connector-curvature="0" /></g><g
   id="g3134"
   transform="translate(141.12,609.291)"><path
     d="m 0,0 c -4.8,15.9 -14.64,27 -21.96,24.78 l -7.56,-2.28 c 7.32,2.22 17.16,-8.88 21.96,-24.84"
     style="fill:#85011b;fill-opacity:1;fill-rule:evenodd;stroke:none"
     id="path3136"
     inkscape:connector-curvature="0" /></g><g
   id="g3138"
   transform="translate(141.12,609.291)"><path
     d="m 0,0 c -4.8,15.9 -14.64,27 -21.96,24.78 l -7.56,-2.28 c -5.94,-1.8 -8.58,-12.06 -6.36,-25.02 l -3.78,-1.2 9.42,-5.46 5.7,10.08 -3.78,-1.14 c -1.68,9.96 -0.6,18.54 2.94,22.68 6.72,-1.92 13.98,-12 17.82,-24.78 L 0,0 z"
     style="fill:none;stroke:#a50122;stroke-width:1;stroke-linecap:butt;stroke-linejoin:miter;stroke-miterlimit:8;stroke-opacity:1;stroke-dasharray:none"
     id="path3140"
     inkscape:connector-curvature="0" /></g><g
   id="g3142"
   transform="translate(111.60001,631.791)"><path
     d="M 0,0 C 1.26,0.36 2.7,0.36 4.14,-0.06"
     style="fill:none;stroke:#a50122;stroke-width:1;stroke-linecap:butt;stroke-linejoin:miter;stroke-miterlimit:8;stroke-opacity:1;stroke-dasharray:none"
     id="path3144"
     inkscape:connector-curvature="0" /></g><g
   id="g3146"
   transform="translate(238.8,556.13)"><path
     d="m 0,0 c 54.36,-89.76 54.3,-199.86 108.66,-289.56 l 16.8,-0.78 c -54.3,89.7 -54.3,199.8 -108.6,289.56"
     style="fill:#bbe0e3;fill-opacity:1;fill-rule:evenodd;stroke:none"
     id="path3148"
     inkscape:connector-curvature="0" /></g><g
   id="g3150"
   transform="translate(238.8,556.13)"><path
     d="m 0,0 c 54.36,-89.76 54.3,-199.86 108.66,-289.56 l 16.8,-0.78 c -54.3,89.7 -54.3,199.8 -108.6,289.56 L 0,0 z"
     style="fill:none;stroke:#010101;stroke-width:0.75;stroke-linecap:round;stroke-linejoin:round;stroke-miterlimit:10;stroke-opacity:1;stroke-dasharray:none"
     id="path3152"
     inkscape:connector-curvature="0" /></g><g
   id="g3154"
   transform="translate(220.32001,574.73)"><path
     d="M 0,0 C 3.72,12.78 11.16,21.78 16.68,20.16 L 60.12,7.5 C 65.58,5.88 67.08,-5.76 63.36,-18.48 59.64,-31.2 52.14,-40.2 46.68,-38.58 L 3.18,-25.92 C -2.28,-24.3 -3.72,-12.72 0,0"
     style="fill:#bbe0e3;fill-opacity:1;fill-rule:evenodd;stroke:none"
     id="path3156"
     inkscape:connector-curvature="0" /></g><g
   id="g3158"
   transform="translate(220.32001,574.73)"><path
     d="M 0,0 C 3.72,12.78 11.16,21.78 16.68,20.16 L 60.12,7.5 C 65.58,5.88 67.08,-5.76 63.36,-18.48 59.64,-31.2 52.14,-40.2 46.68,-38.58 L 3.18,-25.92 C -2.28,-24.3 -3.72,-12.72 0,0 z"
     style="fill:none;stroke:#010101;stroke-width:0.75;stroke-linecap:round;stroke-linejoin:round;stroke-miterlimit:10;stroke-opacity:1;stroke-dasharray:none"
     id="path3160"
     inkscape:connector-curvature="0" /></g><g
   id="g3162"
   transform="translate(237,594.89)"><path
     d="M 0,0 C 5.46,-1.62 6.9,-13.2 3.18,-25.92 -0.54,-38.64 -7.98,-47.7 -13.5,-46.08"
     style="fill:none;stroke:#010101;stroke-width:0.75;stroke-linecap:round;stroke-linejoin:round;stroke-miterlimit:10;stroke-opacity:1;stroke-dasharray:none"
     id="path3164"
     inkscape:connector-curvature="0" /></g><g
   id="g3166"
   transform="translate(234.96001,570.47099)"><path
     d="m 0,0 c -2.28,-7.44 -6.72,-12.72 -9.9,-11.7 -3.24,0.96 -3.96,7.8 -1.68,15.24 2.28,7.5 6.72,12.72 9.9,11.76 C 1.5,14.34 2.28,7.5 0,0"
     style="fill:#016701;fill-opacity:1;fill-rule:evenodd;stroke:none"
     id="path3168"
     inkscape:connector-curvature="0" /></g><g
   id="g3170"
   transform="translate(234.96001,570.47099)"><path
     d="m 0,0 c -2.28,-7.44 -6.72,-12.72 -9.9,-11.7 -3.24,0.96 -3.96,7.8 -1.68,15.24 2.28,7.5 6.72,12.72 9.9,11.76 C 1.5,14.34 2.28,7.5 0,0 z"
     style="fill:none;stroke:#010101;stroke-width:0.75;stroke-linecap:round;stroke-linejoin:round;stroke-miterlimit:10;stroke-opacity:1;stroke-dasharray:none"
     id="path3172"
     inkscape:connector-curvature="0" /></g><g
   id="g3174"
   transform="translate(399.78,260.511)"><path
     d="M 0,0 C -3.72,12.72 -11.16,21.72 -16.68,20.16 L -60.12,7.44 c -5.52,-1.62 -6.96,-13.2 -3.24,-25.92 3.72,-12.72 11.16,-21.78 16.68,-20.16 l 43.44,12.72 C 2.28,-24.36 3.72,-12.72 0,0"
     style="fill:#bbe0e3;fill-opacity:1;fill-rule:evenodd;stroke:none"
     id="path3176"
     inkscape:connector-curvature="0" /></g><g
   id="g3178"
   transform="translate(399.78,260.511)"><path
     d="M 0,0 C -3.72,12.72 -11.16,21.72 -16.68,20.16 L -60.12,7.44 c -5.52,-1.62 -6.96,-13.2 -3.24,-25.92 3.72,-12.72 11.16,-21.78 16.68,-20.16 l 43.44,12.72 C 2.28,-24.36 3.72,-12.72 0,0 z"
     style="fill:none;stroke:#010101;stroke-width:0.75;stroke-linecap:round;stroke-linejoin:round;stroke-miterlimit:10;stroke-opacity:1;stroke-dasharray:none"
     id="path3180"
     inkscape:connector-curvature="0" /></g><g
   id="g3182"
   transform="translate(383.10001,280.67101)"><path
     d="M 0,0 C -5.46,-1.62 -6.9,-13.26 -3.24,-25.98 0.48,-38.7 7.98,-47.7 13.44,-46.08"
     style="fill:none;stroke:#010101;stroke-width:0.75;stroke-linecap:round;stroke-linejoin:round;stroke-miterlimit:10;stroke-opacity:1;stroke-dasharray:none"
     id="path3184"
     inkscape:connector-curvature="0" /></g><g
   id="g3186"
   transform="translate(385.14,256.25101)"><path
     d="m 0,0 c 2.22,-7.5 6.66,-12.72 9.9,-11.76 3.18,0.96 3.96,7.8 1.68,15.3 C 9.3,10.98 4.86,16.26 1.68,15.3 -1.56,14.28 -2.28,7.44 0,0"
     style="fill:#016701;fill-opacity:1;fill-rule:evenodd;stroke:none"
     id="path3188"
     inkscape:connector-curvature="0" /></g><g
   id="g3190"
   transform="translate(385.14,256.25101)"><path
     d="m 0,0 c 2.22,-7.5 6.66,-12.72 9.9,-11.76 3.18,0.96 3.96,7.8 1.68,15.3 C 9.3,10.98 4.86,16.26 1.68,15.3 -1.56,14.28 -2.28,7.44 0,0 z"
     style="fill:none;stroke:#010101;stroke-width:0.75;stroke-linecap:round;stroke-linejoin:round;stroke-miterlimit:10;stroke-opacity:1;stroke-dasharray:none"
     id="path3192"
     inkscape:connector-curvature="0" /></g><g
   id="g3194"
   transform="translate(177.06,588.11)"><path
     d="M 0,0 C 3.72,12.72 11.16,21.78 16.68,20.16 L 60.12,7.44 C 65.64,5.88 67.08,-5.76 63.36,-18.48 59.64,-31.2 52.14,-40.2 46.68,-38.58 L 3.24,-25.92 C -2.28,-24.3 -3.72,-12.72 0,0"
     style="fill:#bbe0e3;fill-opacity:1;fill-rule:evenodd;stroke:none"
     id="path3196"
     inkscape:connector-curvature="0" /></g><g
   id="g3198"
   transform="translate(177.06,588.11)"><path
     d="M 0,0 C 3.72,12.72 11.16,21.78 16.68,20.16 L 60.12,7.44 C 65.64,5.88 67.08,-5.76 63.36,-18.48 59.64,-31.2 52.14,-40.2 46.68,-38.58 L 3.24,-25.92 C -2.28,-24.3 -3.72,-12.72 0,0 z"
     style="fill:none;stroke:#010101;stroke-width:0.75;stroke-linecap:round;stroke-linejoin:round;stroke-miterlimit:10;stroke-opacity:1;stroke-dasharray:none"
     id="path3200"
     inkscape:connector-curvature="0" /></g><g
   id="g3202"
   transform="translate(193.74001,608.27)"><path
     d="M 0,0 C 5.46,-1.62 6.9,-13.2 3.18,-25.92 -0.54,-38.7 -7.98,-47.7 -13.44,-46.08"
     style="fill:none;stroke:#010101;stroke-width:0.75;stroke-linecap:round;stroke-linejoin:round;stroke-miterlimit:10;stroke-opacity:1;stroke-dasharray:none"
     id="path3204"
     inkscape:connector-curvature="0" /></g><g
   id="g3206"
   transform="translate(191.7,583.851)"><path
     d="m 0,0 c -2.28,-7.44 -6.72,-12.72 -9.9,-11.7 -3.18,0.96 -3.96,7.8 -1.68,15.24 2.28,7.5 6.72,12.72 9.9,11.76 C 1.56,14.34 2.28,7.5 0,0"
     style="fill:#016701;fill-opacity:1;fill-rule:evenodd;stroke:none"
     id="path3208"
     inkscape:connector-curvature="0" /></g><g
   id="g3210"
   transform="translate(191.7,583.851)"><path
     d="m 0,0 c -2.28,-7.44 -6.72,-12.72 -9.9,-11.7 -3.18,0.96 -3.96,7.8 -1.68,15.24 2.28,7.5 6.72,12.72 9.9,11.76 C 1.56,14.34 2.28,7.5 0,0 z"
     style="fill:none;stroke:#010101;stroke-width:0.75;stroke-linecap:round;stroke-linejoin:round;stroke-miterlimit:10;stroke-opacity:1;stroke-dasharray:none"
     id="path3212"
     inkscape:connector-curvature="0" /></g><g
   id="g3214"
   transform="translate(253.14,213.771)"><path
     d="M 0,0 83.7,26.22"
     style="fill:none;stroke:#010101;stroke-width:3;stroke-linecap:butt;stroke-linejoin:round;stroke-miterlimit:10;stroke-opacity:1;stroke-dasharray:none"
     id="path3216"
     inkscape:connector-curvature="0" /></g><g
   id="g3218"
   transform="translate(385.67999,257.871)"><path
     d="M 0,0 123.6,39.12"
     style="fill:none;stroke:#010101;stroke-width:3;stroke-linecap:butt;stroke-linejoin:round;stroke-miterlimit:10;stroke-opacity:1;stroke-dasharray:none"
     id="path3220"
     inkscape:connector-curvature="0" /></g><g
   id="g3230"
   transform="translate(431.88,274.131)"><path
     d="M 0,0 -104.28,267.9"
     style="fill:none;stroke:#010101;stroke-width:1.5;stroke-linecap:butt;stroke-linejoin:round;stroke-miterlimit:10;stroke-opacity:1;stroke-dasharray:12, 4.5;stroke-dashoffset:0"
     id="path3232"
     inkscape:connector-curvature="0" /></g><g
   id="g3234"
   transform="translate(420.12,270.231)"><path
     d="M 0,0 -7.74,15.66"
     style="fill:none;stroke:#010101;stroke-width:0.75;stroke-linecap:round;stroke-linejoin:round;stroke-miterlimit:10;stroke-opacity:1;stroke-dasharray:none"
     id="path3236"
     inkscape:connector-curvature="0" /></g><g
   id="g3238"
   transform="matrix(0.97558582,0.21961857,-0.21961857,0.97558582,412.28499,285.93104)"><path
     d="M 0,0 13.62,1.86"
     style="fill:none;stroke:#010101;stroke-width:0.75;stroke-linecap:round;stroke-linejoin:round;stroke-miterlimit:10;stroke-opacity:1;stroke-dasharray:none"
     id="path3240"
     inkscape:connector-curvature="0" /></g><g
   id="g3242"
   transform="translate(310.08,546.89101)"><path
     d="M 0,0 8.76,-24.36"
     style="fill:none;stroke:#010101;stroke-width:0.75;stroke-linecap:round;stroke-linejoin:round;stroke-miterlimit:10;stroke-opacity:1;stroke-dasharray:none"
     id="path3244"
     inkscape:connector-curvature="0" /></g><g
   id="g3246"
   transform="matrix(0.99485526,-0.10130656,0.10130656,0.99485526,318.7354,522.5701)"><path
     d="M 0,0 13.62,6.78"
     style="fill:none;stroke:#010101;stroke-width:0.75;stroke-linecap:round;stroke-linejoin:round;stroke-miterlimit:10;stroke-opacity:1;stroke-dasharray:none"
     id="path3248"
     inkscape:connector-curvature="0" /></g><g
   id="g3262"
   transform="translate(283.2,553.73)"><path
     d="M 0,0 90.42,-30.24"
     style="fill:none;stroke:#010101;stroke-width:3;stroke-linecap:butt;stroke-linejoin:round;stroke-miterlimit:10;stroke-opacity:1;stroke-dasharray:none"
     id="path3264"
     inkscape:connector-curvature="0" /></g><g
   id="g3266"
   transform="translate(119.22,609.411)"><path
     d="M 0,0 67.38,-21.3"
     style="fill:none;stroke:#010101;stroke-width:3;stroke-linecap:butt;stroke-linejoin:round;stroke-miterlimit:10;stroke-opacity:1;stroke-dasharray:none"
     id="path3268"
     inkscape:connector-curvature="0" /></g><text
   transform="matrix(0,1,1,0,0,0)"
   id="text3270"
   x="600.35675"
   y="167.8593"><tspan
     style="font-size:19.97999954px;font-variant:normal;font-weight:normal;font-stretch:normal;writing-mode:lr-tb;fill:#a50021;fill-opacity:1;fill-rule:nonzero;stroke:none;font-family:Arial;-inkscape-font-specification:ArialMT"
     sodipodi:role="line"
     id="tspan3272"
     x="600.35675"
     y="167.8593">Joint i+1</tspan></text>

<g
   id="g3302"
   transform="translate(209.88,602.69)"><path
     d="m 0,0 21,-5.64 39.42,147.06 -21,5.64"
     style="fill:#bbe0e3;fill-opacity:1;fill-rule:evenodd;stroke:none"
     id="path3304"
     inkscape:connector-curvature="0" /></g><g
   id="g3306"
   transform="translate(209.88,602.69)"><path
     d="m 0,0 21,-5.64 39.42,147.06 -21,5.64 L 0,0 z"
     style="fill:none;stroke:#010101;stroke-width:1;stroke-linecap:round;stroke-linejoin:miter;stroke-miterlimit:8;stroke-opacity:1;stroke-dasharray:none"
     id="path3308"
     inkscape:connector-curvature="0" /></g><g
   id="g3342"
   transform="translate(301.5,232.131)"><path
     d="m 0,0 c -4.8,15.9 -14.64,27.06 -21.96,24.84 l -7.56,-2.28 C -35.46,20.7 -38.1,10.5 -35.88,-2.52 l -3.78,-1.14 9.42,-5.52 5.7,10.08 -3.78,-1.14 c -1.68,9.96 -0.6,18.54 2.94,22.74 6.72,-1.98 13.98,-12.06 17.82,-24.78"
     style="fill:#a50122;fill-opacity:1;fill-rule:evenodd;stroke:none"
     id="path3344"
     inkscape:connector-curvature="0" /></g><g
   id="g3346"
   transform="translate(301.5,232.131)"><path
     d="m 0,0 c -4.8,15.9 -14.64,27.06 -21.96,24.84 l -7.56,-2.28 c 7.32,2.16 17.16,-8.94 21.96,-24.84"
     style="fill:#85011b;fill-opacity:1;fill-rule:evenodd;stroke:none"
     id="path3348"
     inkscape:connector-curvature="0" /></g><g
   id="g3350"
   transform="translate(301.5,232.131)"><path
     d="m 0,0 c -4.8,15.9 -14.64,27.06 -21.96,24.84 l -7.56,-2.28 C -35.46,20.7 -38.1,10.5 -35.88,-2.52 l -3.78,-1.14 9.42,-5.52 5.7,10.08 -3.78,-1.14 C -30,9.72 -28.92,18.3 -25.38,22.5 -18.66,20.52 -11.4,10.44 -7.56,-2.28 L 0,0 z"
     style="fill:none;stroke:#a50122;stroke-width:1;stroke-linecap:butt;stroke-linejoin:miter;stroke-miterlimit:8;stroke-opacity:1;stroke-dasharray:none"
     id="path3352"
     inkscape:connector-curvature="0" /></g><g
   id="g3354"
   transform="translate(271.98,254.69099)"><path
     d="M 0,0 C 1.26,0.36 2.64,0.36 4.14,-0.06"
     style="fill:none;stroke:#a50122;stroke-width:1;stroke-linecap:butt;stroke-linejoin:miter;stroke-miterlimit:8;stroke-opacity:1;stroke-dasharray:none"
     id="path3356"
     inkscape:connector-curvature="0" /></g><text
   transform="matrix(0,1,1,0,0,0)"
   id="text3366"
   x="566.58289"
   y="139.84344"><tspan
     style="font-size:19.97999954px;font-variant:normal;font-weight:normal;font-stretch:normal;writing-mode:lr-tb;fill:#a50021;fill-opacity:1;fill-rule:nonzero;stroke:none;font-family:Symbol;-inkscape-font-specification:SymbolMT"
     x="566.58289"
     y="139.84344"
     id="tspan3368">θ</tspan></text>

<text
   transform="matrix(0,1,1,0,0,0)"
   id="text3370"
   x="576.96289"
   y="144.82346"><tspan
     style="font-size:13.02000046px;font-variant:normal;font-weight:normal;font-stretch:normal;writing-mode:lr-tb;fill:#a50021;fill-opacity:1;fill-rule:nonzero;stroke:none;font-family:Arial;-inkscape-font-specification:ArialMT"
     x="576.96289 579.85596 587.46222"
     y="144.82346"
     sodipodi:role="line"
     id="tspan3372">i+1</tspan></text>

<g
   id="g3374"
   transform="translate(330.89999,536.39101)"><path
     d="m 0,0 -51.54,16.68 0.96,2.88 L 0.96,2.88 0,0 z m -51,13.38 -7.2,7.02 9.96,1.56"
     style="fill:#a50122;fill-opacity:1;fill-rule:nonzero;stroke:none"
     id="path3376"
     inkscape:connector-curvature="0" /></g><text
   transform="matrix(0,1,1,0,307.26,552.6505)"
   id="text3378"><tspan
     style="font-size:19.97999954px;font-variant:normal;font-weight:normal;font-stretch:normal;writing-mode:lr-tb;fill:#a50021;fill-opacity:1;fill-rule:nonzero;stroke:none;font-family:Arial;-inkscape-font-specification:ArialMT"
     x="0"
     y="0"
     id="tspan3380">z</tspan></text>

<text
   transform="matrix(0,1,1,0,312.24,562.6705)"
   id="text3382"><tspan
     style="font-size:13.02000046px;font-variant:normal;font-weight:normal;font-stretch:normal;writing-mode:lr-tb;fill:#a50021;fill-opacity:1;fill-rule:nonzero;stroke:none;font-family:Arial;-inkscape-font-specification:ArialMT"
     x="0"
     y="0"
     id="tspan3384">i</tspan></text>

<g
   id="g3386"
   transform="translate(331.08,535.19)"><path
     d="m 0,0 -21.6,54.3 2.76,1.08 L 2.82,1.14 0,0 z m -23.82,51.78 0.84,10.02 7.5,-6.66"
     style="fill:#a50122;fill-opacity:1;fill-rule:nonzero;stroke:none"
     id="path3388"
     inkscape:connector-curvature="0" /></g><text
   transform="matrix(0,1,1,0,314.46,600.4105)"
   id="text3390"><tspan
     style="font-size:19.97999954px;font-variant:normal;font-weight:normal;font-stretch:normal;writing-mode:lr-tb;fill:#a50021;fill-opacity:1;fill-rule:nonzero;stroke:none;font-family:Arial;-inkscape-font-specification:ArialMT"
     x="0"
     y="0"
     id="tspan3392">x</tspan></text>

<text
   transform="matrix(0,1,1,0,319.44,610.4305)"
   id="text3394"><tspan
     style="font-size:13.02000046px;font-variant:normal;font-weight:normal;font-stretch:normal;writing-mode:lr-tb;fill:#a50021;fill-opacity:1;fill-rule:nonzero;stroke:none;font-family:Arial;-inkscape-font-specification:ArialMT"
     x="0"
     y="0"
     id="tspan3396">i</tspan></text>

<g
   id="g3398"
   transform="translate(331.8,535.31)"><path
     d="m 0,0 -53.22,-17.28 -0.96,2.82 L -0.9,2.88 0,0 z m -50.88,-19.68 -9.96,1.5 7.2,7.08"
     style="fill:#a50122;fill-opacity:1;fill-rule:nonzero;stroke:none"
     id="path3400"
     inkscape:connector-curvature="0" /></g><g
   id="g3402"
   transform="translate(291.72,523.791)"><path
     d="m 0,0 0.06,2.4 c 0.186,6.031 0.885,12.729 3.36,18.3 l 0.3,0.6 c 0,0.06 0.06,0.06 0.12,0.12 L 4.8,22.44 5.52,21.72 4.5,20.7 4.62,20.82 4.32,20.28 C 1.973,14.986 1.249,8.128 1.02,2.4 l 0,-2.46 L 0,0 z m 3.12,23.04 4.38,0.9 -1.86,-4.02"
     style="fill:#a50122;fill-opacity:1;fill-rule:nonzero;stroke:none"
     id="path3404"
     inkscape:connector-curvature="0" /></g><text
   transform="matrix(0,1,1,0,503.1,358.7905)"
   id="text3414"><tspan
     style="font-size:19.97999954px;font-variant:normal;font-weight:normal;font-stretch:normal;writing-mode:lr-tb;fill:#a50021;fill-opacity:1;fill-rule:nonzero;stroke:none;font-family:Arial;-inkscape-font-specification:ArialMT"
     x="0"
     y="0"
     id="tspan3416">x</tspan></text>

<text
   transform="matrix(0,1,1,0,508.08,368.8105)"
   id="text3418"><tspan
     style="font-size:13.02000046px;font-variant:normal;font-weight:normal;font-stretch:normal;writing-mode:lr-tb;fill:#a50021;fill-opacity:1;fill-rule:nonzero;stroke:none;font-family:Arial;-inkscape-font-specification:ArialMT"
     x="0 2.8761179 7.1974559"
     y="0"
     sodipodi:role="line"
     id="tspan3420">i-1</tspan></text>

<g
   id="g3422"
   transform="translate(460.08,96.891007)"><path
     d="M 0,0 27,193.5"
     style="fill:none;stroke:#010101;stroke-width:1;stroke-linecap:butt;stroke-linejoin:round;stroke-miterlimit:10;stroke-opacity:1;stroke-dasharray:none"
     id="path3424"
     inkscape:connector-curvature="0" /></g><text
   transform="matrix(0.1520709,0.98836959,0.98836959,-0.1520709,0,0)"
   id="text3426"
   x="208.22501"
   y="453.38312"
   style="font-size:12px"><tspan
     style="font-size:19.9745636px;font-variant:normal;font-weight:normal;font-stretch:normal;writing-mode:lr-tb;fill:#a50021;fill-opacity:1;fill-rule:nonzero;stroke:none;font-family:Arial;-inkscape-font-specification:ArialMT"
     x="208.22501"
     y="453.38312"
     id="tspan3428">a</tspan></text>

<text
   transform="matrix(0.145323,0.98938427,0.98938427,-0.145323,0,0)"
   id="text3430"
   x="215.39583"
   y="460.24805"
   style="font-size:12px"><tspan
     style="font-size:13.01627636px;font-variant:normal;font-weight:normal;font-stretch:normal;writing-mode:lr-tb;fill:#a50021;fill-opacity:1;fill-rule:nonzero;stroke:none;font-family:Arial;-inkscape-font-specification:ArialMT"
     x="215.39583"
     y="460.24805"
     id="tspan3432">i</tspan><tspan
     style="font-size:13.01627636px;font-variant:normal;font-weight:normal;font-stretch:normal;writing-mode:lr-tb;fill:#a50021;fill-opacity:1;fill-rule:nonzero;stroke:none;font-family:Arial;-inkscape-font-specification:ArialMT"
     x="218.2464"
     y="460.23502"
     id="tspan3434">-</tspan><tspan
     style="font-size:13.01627636px;font-variant:normal;font-weight:normal;font-stretch:normal;writing-mode:lr-tb;fill:#a50021;fill-opacity:1;fill-rule:nonzero;stroke:none;font-family:Arial;-inkscape-font-specification:ArialMT"
     x="222.59384"
     y="460.24805"
     id="tspan3436">1</tspan></text>

<g
   id="g3438"
   transform="translate(485.88,288.231)"><path
     d="M 0,0 8.58,63 9.54,62.88 0.96,-0.18 0,0 z m 6.96,62.22 2.52,3.66 1.44,-4.2"
     style="fill:#010101;fill-opacity:1;fill-rule:nonzero;stroke:none"
     id="path3440"
     inkscape:connector-curvature="0" /></g><g
   id="g3442"
   transform="translate(486.66,290.211)"><path
     d="M 0,0 -30.84,80.64 -29.88,81 0.9,0.36 0,0 z m -30.36,80.82 -1.14,-2.58 0.42,4.44 3.3,-3.06"
     style="fill:#010101;fill-opacity:1;fill-rule:nonzero;stroke:none"
     id="path3444"
     inkscape:connector-curvature="0" /></g><text
   transform="matrix(0,1,1,0,457.08,289.4905)"
   id="text3446"><tspan
     style="font-size:19.97999954px;font-variant:normal;font-weight:normal;font-stretch:normal;writing-mode:lr-tb;fill:#a50021;fill-opacity:1;fill-rule:nonzero;stroke:none;font-family:Arial;-inkscape-font-specification:ArialMT"
     x="0"
     y="0"
     id="tspan3448">z</tspan></text>

<text
   transform="matrix(0,1,1,0,462.06,299.5105)"
   id="text3450"><tspan
     style="font-size:13.02000046px;font-variant:normal;font-weight:normal;font-stretch:normal;writing-mode:lr-tb;fill:#a50021;fill-opacity:1;fill-rule:nonzero;stroke:none;font-family:Arial;-inkscape-font-specification:ArialMT"
     x="0 2.8761179 7.1974559"
     y="0"
     sodipodi:role="line"
     id="tspan3452">i-1</tspan></text>

<g
   id="g3454"
   transform="translate(486.66,288.651)"><path
     d="M 0,0 -50.4,-15.6 -51,-13.68 -0.6,1.92 0,0 z m -49.14,-16.26 -4.44,0.72 3.24,3.12"
     style="fill:#010101;fill-opacity:1;fill-rule:nonzero;stroke:none"
     id="path3456"
     inkscape:connector-curvature="0" /></g><g
   id="g3458"
   transform="translate(411.84,113.871)"><path
     d="M 0,0 27,193.5"
     style="fill:none;stroke:#010101;stroke-width:1;stroke-linecap:butt;stroke-linejoin:round;stroke-miterlimit:10;stroke-opacity:1;stroke-dasharray:none"
     id="path3460"
     inkscape:connector-curvature="0" /></g><g
   id="g3474"
   transform="translate(432.84,254.991)"><path
     d="M 0,0 50.46,16.98 50.76,16.02 0.3,-0.96 0,0 z M 0.18,-0.48 2.7,-1.74 -1.74,-1.08 1.44,2.04 0.18,-0.48 z m 50.46,16.98 -2.58,1.26 4.44,-0.6 -3.12,-3.18"
     style="fill:#010101;fill-opacity:1;fill-rule:nonzero;stroke:none"
     id="path3476"
     inkscape:connector-curvature="0" /></g><text
   transform="matrix(0,1,1,0,483.84,353.3905)"
   id="text3478"><tspan
     style="font-size:19.97999954px;font-variant:normal;font-weight:normal;font-stretch:normal;writing-mode:lr-tb;fill:#a50021;fill-opacity:1;fill-rule:nonzero;stroke:none;font-family:Symbol;-inkscape-font-specification:SymbolMT"
     x="0"
     y="0"
     id="tspan3480">θ</tspan></text>

<text
   transform="matrix(0,1,1,0,488.82,363.7705)"
   id="text3482"><tspan
     style="font-size:13.02000046px;font-variant:normal;font-weight:normal;font-stretch:normal;writing-mode:lr-tb;fill:#a50021;fill-opacity:1;fill-rule:nonzero;stroke:none;font-family:Arial;-inkscape-font-specification:ArialMT"
     x="0"
     y="0"
     id="tspan3484">i</tspan></text>

<g
   id="g3486"
   transform="translate(492.60001,339.83099)"><path
     d="M 0,0 0,0.36 0,0.3 -0.12,0.66 -0.06,0.54 -0.24,0.9 C -3.48,5.311 -18.122,6.429 -23.1,6.54 l -0.66,0 0,0.96 0.72,0 C -18.131,7.538 -2.155,6.171 0.66,1.32 L 0.84,0.96 c 0,0 0,0 0,-0.06 L 0.96,0.54 0.96,0.48 1.02,0.12 0,0 z m -23.76,7.02 1.98,-2.04 -3.96,2.1 4.02,1.92"
     style="fill:#010101;fill-opacity:1;fill-rule:nonzero;stroke:none"
     id="path3488"
     inkscape:connector-curvature="0" /></g><text
   style="font-size:12px"
   y="40.082558"
   x="664.33466"
   id="text3270-1"
   transform="matrix(0.26216206,0.96502386,0.96502386,-0.26216206,0,0)"><tspan
     style="font-size:19.97999954px;font-variant:normal;font-weight:normal;font-stretch:normal;writing-mode:lr-tb;fill:#a50021;fill-opacity:1;fill-rule:nonzero;stroke:none;font-family:Arial;-inkscape-font-specification:ArialMT"
     sodipodi:role="line"
     id="tspan3272-7"
     x="664.33466"
     y="40.082558">Link i+1</tspan></text>

<text
   style="font-size:12.00000095px"
   y="389.67572"
   x="279.59952"
   id="text3270-1-1"
   transform="matrix(-0.27394519,0.96174531,0.96174531,0.27394519,0,0)"><tspan
     style="font-size:32px;font-variant:normal;font-weight:normal;font-stretch:normal;writing-mode:lr-tb;fill:#a50021;fill-opacity:1;fill-rule:nonzero;stroke:none;font-family:Arial;-inkscape-font-specification:ArialMT"
     sodipodi:role="line"
     id="tspan3272-7-5"
     x="279.59952"
     y="389.67572">Link i</tspan></text>

<text
   style="font-size:12px"
   id="text3270-5"
   x="144.24158"
   y="329.8063"
   transform="matrix(0,1,1,0,0,0)"><tspan
     style="font-size:32px;font-variant:normal;font-weight:normal;font-stretch:normal;writing-mode:lr-tb;fill:#a50021;fill-opacity:1;fill-rule:nonzero;stroke:none;font-family:Arial;-inkscape-font-specification:ArialMT"
     sodipodi:role="line"
     id="tspan3272-0"
     x="144.24158"
     y="329.8063">Joint i</tspan></text>

<text
   xml:space="preserve"
   x="214.72824"
   y="465.75232"
   id="text3624"
   transform="matrix(0,1,1,0,0,0)"
   style="font-size:9.60000038px"><tspan
     sodipodi:role="line"
     id="tspan3626"
     x="214.72824"
     y="465.75232"
     style="font-size:40px;font-weight:bold;-inkscape-font-specification:Sans Bold">d<tspan
   style="font-size:40px;font-weight:bold;baseline-shift:sub;-inkscape-font-specification:Sans Bold"
   id="tspan3628">i</tspan></tspan></text>

<text
   xml:space="preserve"
   style="font-size:6.4000001px;font-style:normal;font-weight:bold;line-height:125%;letter-spacing:0px;word-spacing:0px;fill:#000000;fill-opacity:1;stroke:none;font-family:Sans;-inkscape-font-specification:Sans Bold"
   x="386.86209"
   y="410.26517"
   id="text3658"
   sodipodi:linespacing="125%"
   transform="matrix(0,1,1,0,0,0)"><tspan
     sodipodi:role="line"
     id="tspan3660"
     x="386.86209"
     y="410.26517"
     style="font-size:40px">a<tspan
   style="font-size:26.00036621px;baseline-shift:sub"
   id="tspan3662">i</tspan></tspan></text>

<text
   xml:space="preserve"
   style="font-size:6.4000001px;font-style:normal;font-weight:bold;line-height:125%;letter-spacing:0px;word-spacing:0px;fill:#000000;fill-opacity:1;stroke:none;font-family:Sans;-inkscape-font-specification:Sans Bold"
   x="221.13792"
   y="248.26518"
   id="text3664"
   sodipodi:linespacing="125%"
   transform="matrix(0,1,1,0,0,0)"><tspan
     sodipodi:role="line"
     id="tspan3666"
     x="221.13792"
     y="248.26518"
     style="font-size:40px">θ<tspan
   style="font-size:26.00036621px;baseline-shift:sub"
   id="tspan3668">i</tspan></tspan></text>

<text
   xml:space="preserve"
   style="font-size:6.4000001px;font-style:normal;font-weight:bold;line-height:125%;letter-spacing:0px;word-spacing:0px;fill:#000000;fill-opacity:1;stroke:none;font-family:Sans;-inkscape-font-specification:Sans Bold"
   x="486.94827"
   y="314.36862"
   id="text3670"
   sodipodi:linespacing="125%"
   transform="matrix(0,1,1,0,0,0)"><tspan
     sodipodi:role="line"
     id="tspan3672"
     x="486.94827"
     y="314.36862"
     style="font-size:40px">α<tspan
   style="font-size:26.00036621px;baseline-shift:sub"
   id="tspan3674">i</tspan></tspan></text>

</g></svg>